{"title":"Final Destination series Hindi","uid":6254379,"size":2887240195,"categoryP":"video","categoryS":"movies","magnet":"?xt=urn:btih:de6e7fd000f10e8cf4d55881905015387ad232f1&amp;dn=Final+Destination+series+Hindi&amp;tr=udp%3A%2F%2Ftracker.openbittorrent.com%3A80&amp;tr=udp%3A%2F%2Fopen.demonii.com%3A1337&amp;tr=udp%3A%2F%2Ftracker.coppersurfer.tk%3A6969&amp;tr=udp%3A%2F%2Fexodus.desync.com%3A6969","seeders":0,"leechers":1,"uploader":"love4959","files":-1,"time":1300527687,"description":"Final Destination 1\n &lt;a href=&quot;\nhttp://www.imdb.com/title/tt0195714/&quot; rel=&quot;nofollow&quot; target=&quot;_NEW&quot;&gt;\nhttp://www.imdb.com/title/tt0195714/&lt;/a&gt;\n\nLanguage : Hindi, English\nSubtitles : English\nDirector : James Wong\nWriters : Glen Morgan (screenplay), James Wong (screenplay)\nStars : Devon Sawa, Ali Larter and Kerr Smith\nGenres : Horror | Thriller\nSample : Included\n\n\nQuote:\nGeneral\nFormat : Matroska\nFile size : 577 MiB\nDuration : 1h 37mn\nOverall bit rate : 824 Kbps\nEncoded date : UTC 2010-12-13 14:13:11\nWriting application : mkvmerge v4.3.0 ('Escape from the Island') built on Sep 5 2010 10:30:51\nWriting library : libebml v1.0.0 + libmatroska v1.0.0\n\nVideo\nID : 1\nFormat : AVC\nFormat/Info : Advanced Video Codec\nFormat profile : &lt;a class=&quot;__cf_email__&quot; href=&quot;/cdn-cgi/l/email-protection&quot; data-cfemail=&quot;c981a0aea18985fde7f8&quot;&gt;[email&amp;#160;protected]&lt;/a&gt;&lt;script cf-hash='f9e31' type=&quot;text/javascript&quot;&gt;\n/* &lt;![CDATA[ */!function(){try{var t=&quot;currentScript&quot;in document?document.currentScript:function(){for(var t=document.getElementsByTagName(&quot;script&quot;),e=t.length;e--;)if(t[e].getAttribute(&quot;cf-hash&quot;))return t[e]}();if(t&amp;&amp;t.previousSibling){var e,r,n,i,c=t.previousSibling,a=c.getAttribute(&quot;data-cfemail&quot;);if(a){for(e=&quot;&quot;,r=parseInt(a.substr(0,2),16),n=2;a.length-n;n+=2)i=parseInt(a.substr(n,2),16)^r,e+=String.fromCharCode(i);e=document.createTextNode(e),c.parentNode.replaceChild(e,c)}}}catch(u){}}();/* ]]&gt; */&lt;/script&gt;\nFormat settings, CABAC : Yes\nFormat settings, ReFrames : 2 frames\nMuxing mode : Header stripping\nCodec ID : V_MPEG4/ISO/AVC\nDuration : 1h 37mn\nBit rate : 680 Kbps\nWidth : 1 280 pixels\nHeight : 690 pixels\nDisplay aspect ratio : 1.850\nFrame rate : 19.181 fps\nColor space : YUV\nChroma subsampling : 4:2:0\nBit depth : 8 bits\nScan type : Progressive\nBits/(Pixel*Frame) : 0.040\nStream size : 1.9 Gb (82%)\nLanguage : English\n\nAudio #1\nID : 2\nFormat : AC-3\nFormat/Info : Audio Coding 3\nMode extension : CM (complete main)\nMuxing mode : Header stripping\nCodec ID : A_AC3\nDuration : 1h 37mn\nBit rate mode : Constant\nBit rate : 64.0 Kbps\nChannel(s) : 2 channels\nChannel positions : Front: L R\nSampling rate : 48.0 KHz\nBit depth : 16 bits\nVideo delay : 7ms\nStream size : 44.9 MiB (8%)\nTitle : English\nLanguage : English\n\nAudio #2\nID : 3\nFormat : AC-3\nFormat/Info : Audio Coding 3\nMode extension : CM (complete main)\nMuxing mode : Header stripping\nCodec ID : A_AC3\nDuration : 1h 37mn\nBit rate mode : Constant\nBit rate : 64.0 Kbps\nChannel(s) : 2 channels\nChannel positions : Front: L R\nSampling rate : 44.1 KHz\nBit depth : 16 bits\nVideo delay : 11ms\nStream size : 44.9 MiB (8%)\nTitle : Hindi\nLanguage : Hindi\n\nText\nID : 4\nFormat : UTF-8\nCodec ID : S_TEXT/UTF8\nCodec ID/Info : UTF-8 Plain Text\nLanguage : English\n\n\nFinal Destination 2\n &lt;a href=&quot;\nhttp://www.imdb.com/title/tt0309593/&quot; rel=&quot;nofollow&quot; target=&quot;_NEW&quot;&gt;\nhttp://www.imdb.com/title/tt0309593/&lt;/a&gt;\nLanguage : Hindi, English\nSubtitles : English\nDirector : David R. Ellis\nWriters : J. Mackye Gruber (screenplay), Eric Bress (screenplay)\nStars : A.J. Cook, Ali Larter and Tony Todd\nGenres : Horror | Thriller\nSample : Included\n\n\nQuote:\nGeneral\n\n\nDuration : 1h 30mn\nOverall bit rate : 1 002 Kbps\nEncoded date : UTC 2010-12-14 15:26:31\nWriting application : mkvmerge v4.3.0 ('Escape from the Island') built on Sep 5 2010 10:30:51\nWriting library : libebml v1.0.0 + libmatroska v1.0.0\n\nVideo\nID : 1\nFormat : AVC\nFormat/Info : Advanced Video Codec\nFormat profile : &lt;a class=&quot;__cf_email__&quot; href=&quot;/cdn-cgi/l/email-protection&quot; data-cfemail=&quot;6c24050b042c2058425d&quot;&gt;[email&amp;#160;protected]&lt;/a&gt;&lt;script cf-hash='f9e31' type=&quot;text/javascript&quot;&gt;\n/* &lt;![CDATA[ */!function(){try{var t=&quot;currentScript&quot;in document?document.currentScript:function(){for(var t=document.getElementsByTagName(&quot;script&quot;),e=t.length;e--;)if(t[e].getAttribute(&quot;cf-hash&quot;))return t[e]}();if(t&amp;&amp;t.previousSibling){var e,r,n,i,c=t.previousSibling,a=c.getAttribute(&quot;data-cfemail&quot;);if(a){for(e=&quot;&quot;,r=parseInt(a.substr(0,2),16),n=2;a.length-n;n+=2)i=parseInt(a.substr(n,2),16)^r,e+=String.fromCharCode(i);e=document.createTextNode(e),c.parentNode.replaceChild(e,c)}}}catch(u){}}();/* ]]&gt; */&lt;/script&gt;\nFormat settings, CABAC : Yes\nFormat settings, ReFrames : 2 frames\nMuxing mode : Header stripping\nCodec ID : V_MPEG4/ISO/AVC\nDuration : 1h 30mn\nBit rate : 816 Kbps\nWidth : 1 280 pixels\nHeight : 690 pixels\nDisplay aspect ratio : 1.850\nFrame rate : 19.181 fps\nColor space : YUV\nChroma subsampling : 4:2:0\nBit depth : 8 bits\nScan type : Progressive\nBits/(Pixel*Frame) : 0.048\nStream size : 510 MiB (79%)\nWriting library : x264 core 68 r1183M f21daff\nLanguage : English\n\nAudio #1\nID : 2\nFormat : AC-3\nFormat/Info : Audio Coding 3\nMode extension : CM (complete main)\nMuxing mode : Header stripping\nCodec ID : A_AC3\nDuration : 1h 30mn\nBit rate mode : Constant\nBit rate : 64.0 Kbps\nChannel(s) : 2 channels\nChannel positions : Front: L R\nSampling rate : 48.0 KHz\nBit depth : 16 bits\nStream size : 41.3 MiB (6%)\nTitle : English\nLanguage : English\n\nAudio #2\nID : 3\nFormat : MPEG Audio\nFormat version : Version 1\nFormat profile : Layer 3\nMode : Joint stereo\nMuxing mode : Header stripping\nCodec ID : A_MPEG/L3\nCodec ID/Hint : MP3\nDuration : 45mn 24s\nBit rate mode : Constant\nBit rate : 128 Kbps\nChannel(s) : 2 channels\nSampling rate : 44.1 KHz\nVideo delay : 2s 0ms\nStream size : 41.6 MiB (6%)\nTitle : Hindi\nWriting library : LAME3.98r\nEncoding settings : -m j -V 4 -q 2 -lowpass 17 -b 128\nLanguage : Hindi\n\nText\nID : 4\nFormat : UTF-8\nCodec ID : S_TEXT/UTF8\nCodec ID/Info : UTF-8 Plain Text\nTitle : English\n\n\nFinal Destination 3\n\nLanguage : Hindi, English\nSubtitles : English\nDirector : David R. Ellis\nWriters : J. Mackye Gruber (screenplay), Eric Bress (screenplay)\nStars : A.J. Cook, Ali Larter and Tony Todd\nGenres : Horror | Thriller\nSample : Included\n\n\n\nQuote:\nGeneral\nFormat : Matroska\nFile size : 646 MiB\nDuration : 1h 30mn\nOverall bit rate : 1 002 Kbps\nEncoded date : UTC 2010-12-14 15:26:31\nWriting application : mkvmerge v4.3.0 ('Escape from the Island') built on Sep 5 2010 10:30:51\nWriting library : libebml v1.0.0 + libmatroska v1.0.0\n\nVideo\nID : 1\nFormat : AVC\nFormat/Info : Advanced Video Codec\nFormat profile : &lt;a class=&quot;__cf_email__&quot; href=&quot;/cdn-cgi/l/email-protection&quot; data-cfemail=&quot;470f2e202f070b736976&quot;&gt;[email&amp;#160;protected]&lt;/a&gt;&lt;script cf-hash='f9e31' type=&quot;text/javascript&quot;&gt;\n/* &lt;![CDATA[ */!function(){try{var t=&quot;currentScript&quot;in document?document.currentScript:function(){for(var t=document.getElementsByTagName(&quot;script&quot;),e=t.length;e--;)if(t[e].getAttribute(&quot;cf-hash&quot;))return t[e]}();if(t&amp;&amp;t.previousSibling){var e,r,n,i,c=t.previousSibling,a=c.getAttribute(&quot;data-cfemail&quot;);if(a){for(e=&quot;&quot;,r=parseInt(a.substr(0,2),16),n=2;a.length-n;n+=2)i=parseInt(a.substr(n,2),16)^r,e+=String.fromCharCode(i);e=document.createTextNode(e),c.parentNode.replaceChild(e,c)}}}catch(u){}}();/* ]]&gt; */&lt;/script&gt;\nFormat settings, CABAC : Yes\nFormat settings, ReFrames : 2 frames\nMuxing mode : Header stripping\nCodec ID : V_MPEG4/ISO/AVC\nDuration : 1h 30mn\nBit rate : 816 Kbps\nWidth : 1 280 pixels\nHeight : 690 pixels\nDisplay aspect ratio : 1.850\nFrame rate : 19.181 fps\nColor space : YUV\nChroma subsampling : 4:2:0\nBit depth : 8 bits\nScan type : Progressive\nBits/(Pixel*Frame) : 0.048\nStream size : 510 MiB (79%)\nWriting library : x264 core 68 r1183M f21daff\n\nLanguage : English\n\nAudio #1\nID : 2\nFormat : AC-3\nFormat/Info : Audio Coding 3\nMode extension : CM (complete main)\nMuxing mode : Header stripping\nCodec ID : A_AC3\nDuration : 1h 30mn\nBit rate mode : Constant\nBit rate : 64.0 Kbps\nChannel(s) : 2 channels\nChannel positions : Front: L R\nSampling rate : 48.0 KHz\nBit depth : 16 bits\nStream size : 41.3 MiB (6%)\nTitle : English\nLanguage : English\n\nAudio #2\nID : 3\nFormat : MPEG Audio\nFormat version : Version 1\nFormat profile : Layer 3\nMode : Joint stereo\nMuxing mode : Header stripping\nCodec ID : A_MPEG/L3\nCodec ID/Hint : MP3\nDuration : 45mn 24s\nBit rate mode : Constant\nBit rate : 128 Kbps\nChannel(s) : 2 channels\nSampling rate : 44.1 KHz\nVideo delay : 2s 0ms\nStream size : 41.6 MiB (6%)\nTitle : Hindi\nWriting library : LAME3.98r\nEncoding settings : -m j -V 4 -q 2 -lowpass 17 -b 128\nLanguage : Hindi\n\nText\nID : 4\nFormat : UTF-8\nCodec ID : S_TEXT/UTF8\nCodec ID/Info : UTF-8 Plain Text\nTitle : English\n\nFinal Destination 4\n\n &lt;a href=&quot;\nhttp://www.imdb.com/title/tt1144884&quot; rel=&quot;nofollow&quot; target=&quot;_NEW&quot;&gt;\nhttp://www.imdb.com/title/tt1144884&lt;/a&gt;\n\nCast\nBobby Campo ... Nick O'Bannon\nShantel VanSanten ... Lori Milligan\nNick Zano ... Hunt Wynorski\nHaley Webb ... Janet Cunningham\nMykelti Williamson ... George Lanter\nKrista Allen ... Samantha Lane\nAndrew Fiscella ... Andy Kewzer - Mechanic\nJustin Welborn ... Carter Daniels\nStephanie Honore ... Nadia Monroy - Mechanic's GF\nLara Grice ... Cynthia Daniels\nJackson Walker ... Jonathan Grove - Cowboy\nPhil Austin ... Samantha's Husband\nWilliam Aguillard ... Kid #1\nBrendan Aguillard ... Kid #2\nJuan Kincaid ... Newscaste\n\nRelease Title :- Final Destination.4\nRelease Date :- 28 August 2009\nLength :- 01:21:50\nImdb Rating :- 5.0/10 15,331 votes\nGenre :- Horror | Thriller\nLanguage :- Dual Audio\nAwards :-\nSource :- DvDrip\nRe Ripping x264\nTotal Size :- 511 MB\n\nFormat :- Matroska At 874 Kbps\nBitrate :- 664 Kbs\nEncoding :- 2 Pass\nResolution :- 720 x 304\nQuality Factor (QF) :- 0.158\nFrame Rate :- 19,181 fps\nSize :- 393 MB (77%)\nDisplay Aspect Ratio :- 2.351\n\nAudio 1: AC-3\nLenguage: English\nBitrate: 64 Kbit/s\nSample Rate: 48000Hz\nChannels: 2 Channels\nSize: 37.5 MB (7%)\n\nAudio 2: MP-3\nLenguage: Hindi\nBitrate: 128 Kbit/s\nSample Rate: 48000Hz\nChannels: 2 channels\nSize: 74.3 MB (15%)\n\n","torrent":{"xt":"urn:btih:de6e7fd000f10e8cf4d55881905015387ad232f1","amp;dn":"Final+Destination+series+Hindi","amp;tr":["udp%3A%2F%2Ftracker.openbittorrent.com%3A80","udp%3A%2F%2Fopen.demonii.com%3A1337","udp%3A%2F%2Ftracker.coppersurfer.tk%3A6969","udp%3A%2F%2Fexodus.desync.com%3A6969"],"infoHash":"de6e7fd000f10e8cf4d55881905015387ad232f1","infoHashBuffer":{"type":"Buffer","data":[222,110,127,208,0,241,14,140,244,213,88,129,144,80,21,56,122,210,50,241]},"announce":[],"urlList":[]}}